<mxfile host="app.diagrams.net" agent="Mozilla/5.0 (Macintosh; Intel Mac OS X 10_15_7) AppleWebKit/605.1.15 (KHTML, like Gecko) Version/17.3 Safari/605.1.15" version="27.1.6">
  <diagram name="Page-1" id="JapDRAyxBpyOf1apotyI">
    <mxGraphModel dx="1509" dy="1064" grid="1" gridSize="10" guides="1" tooltips="1" connect="1" arrows="1" fold="1" page="1" pageScale="1" pageWidth="850" pageHeight="1100" math="0" shadow="0">
      <root>
        <mxCell id="0" />
        <mxCell id="1" parent="0" />
        <mxCell id="striKXGjZCaCur9RrCGB-3" value="&lt;font style=&quot;font-size: 24px;&quot;&gt;Patient&lt;/font&gt;" style="rounded=0;whiteSpace=wrap;html=1;strokeWidth=3;" vertex="1" parent="1">
          <mxGeometry x="160" y="160" width="120" height="60" as="geometry" />
        </mxCell>
        <mxCell id="striKXGjZCaCur9RrCGB-4" value="&lt;font style=&quot;font-size: 14px;&quot;&gt;Name&lt;/font&gt;" style="ellipse;whiteSpace=wrap;html=1;" vertex="1" parent="1">
          <mxGeometry x="20" y="240" width="100" height="60" as="geometry" />
        </mxCell>
        <mxCell id="striKXGjZCaCur9RrCGB-5" value="&lt;u&gt;&lt;font style=&quot;font-size: 18px;&quot;&gt;Patient_ID&lt;/font&gt;&lt;/u&gt;" style="ellipse;whiteSpace=wrap;html=1;" vertex="1" parent="1">
          <mxGeometry x="20" y="60" width="100" height="60" as="geometry" />
        </mxCell>
        <mxCell id="striKXGjZCaCur9RrCGB-6" value="&lt;font style=&quot;font-size: 14px;&quot;&gt;Age&lt;/font&gt;" style="ellipse;whiteSpace=wrap;html=1;" vertex="1" parent="1">
          <mxGeometry x="170" y="60" width="100" height="60" as="geometry" />
        </mxCell>
        <mxCell id="striKXGjZCaCur9RrCGB-7" value="&lt;font style=&quot;font-size: 14px;&quot;&gt;Address&lt;/font&gt;" style="ellipse;whiteSpace=wrap;html=1;" vertex="1" parent="1">
          <mxGeometry x="20" y="150" width="100" height="60" as="geometry" />
        </mxCell>
        <mxCell id="striKXGjZCaCur9RrCGB-8" value="" style="endArrow=none;html=1;rounded=0;strokeWidth=3;" edge="1" parent="1" source="striKXGjZCaCur9RrCGB-3">
          <mxGeometry width="50" height="50" relative="1" as="geometry">
            <mxPoint x="170" y="170" as="sourcePoint" />
            <mxPoint x="220" y="120" as="targetPoint" />
            <Array as="points" />
          </mxGeometry>
        </mxCell>
        <mxCell id="striKXGjZCaCur9RrCGB-9" value="" style="endArrow=none;html=1;rounded=0;exitX=0;exitY=0;exitDx=0;exitDy=0;strokeWidth=3;" edge="1" parent="1" source="striKXGjZCaCur9RrCGB-3" target="striKXGjZCaCur9RrCGB-5">
          <mxGeometry width="50" height="50" relative="1" as="geometry">
            <mxPoint x="80" y="140" as="sourcePoint" />
            <mxPoint x="130" y="90" as="targetPoint" />
          </mxGeometry>
        </mxCell>
        <mxCell id="striKXGjZCaCur9RrCGB-10" value="" style="endArrow=none;html=1;rounded=0;exitX=0.98;exitY=0.4;exitDx=0;exitDy=0;exitPerimeter=0;strokeWidth=3;" edge="1" parent="1" source="striKXGjZCaCur9RrCGB-4">
          <mxGeometry width="50" height="50" relative="1" as="geometry">
            <mxPoint x="110" y="270" as="sourcePoint" />
            <mxPoint x="160" y="220" as="targetPoint" />
          </mxGeometry>
        </mxCell>
        <mxCell id="striKXGjZCaCur9RrCGB-11" value="" style="endArrow=none;html=1;rounded=0;strokeWidth=3;" edge="1" parent="1">
          <mxGeometry width="50" height="50" relative="1" as="geometry">
            <mxPoint x="120" y="179.5" as="sourcePoint" />
            <mxPoint x="160" y="180" as="targetPoint" />
          </mxGeometry>
        </mxCell>
        <mxCell id="striKXGjZCaCur9RrCGB-12" value="&lt;font style=&quot;font-size: 24px;&quot;&gt;Doctor&lt;/font&gt;" style="rounded=0;whiteSpace=wrap;html=1;strokeWidth=3;" vertex="1" parent="1">
          <mxGeometry x="160" y="560" width="120" height="60" as="geometry" />
        </mxCell>
        <mxCell id="striKXGjZCaCur9RrCGB-13" value="&lt;font style=&quot;font-size: 14px;&quot;&gt;Name&lt;/font&gt;" style="ellipse;whiteSpace=wrap;html=1;" vertex="1" parent="1">
          <mxGeometry x="10" y="520" width="100" height="60" as="geometry" />
        </mxCell>
        <mxCell id="striKXGjZCaCur9RrCGB-14" value="&lt;u&gt;&lt;font style=&quot;font-size: 18px;&quot;&gt;Doctor_ID&lt;/font&gt;&lt;/u&gt;" style="ellipse;whiteSpace=wrap;html=1;" vertex="1" parent="1">
          <mxGeometry x="200" y="680" width="100" height="60" as="geometry" />
        </mxCell>
        <mxCell id="striKXGjZCaCur9RrCGB-15" value="Year_of_experience" style="ellipse;whiteSpace=wrap;html=1;" vertex="1" parent="1">
          <mxGeometry x="70" y="680" width="120" height="60" as="geometry" />
        </mxCell>
        <mxCell id="striKXGjZCaCur9RrCGB-16" value="&lt;font style=&quot;font-size: 14px;&quot;&gt;Speciality&lt;/font&gt;" style="ellipse;whiteSpace=wrap;html=1;" vertex="1" parent="1">
          <mxGeometry x="10" y="600" width="100" height="60" as="geometry" />
        </mxCell>
        <mxCell id="striKXGjZCaCur9RrCGB-17" value="" style="endArrow=none;html=1;rounded=0;strokeWidth=3;exitX=0.971;exitY=0.641;exitDx=0;exitDy=0;exitPerimeter=0;" edge="1" parent="1" source="striKXGjZCaCur9RrCGB-13">
          <mxGeometry width="50" height="50" relative="1" as="geometry">
            <mxPoint x="110" y="560" as="sourcePoint" />
            <mxPoint x="160" y="570" as="targetPoint" />
          </mxGeometry>
        </mxCell>
        <mxCell id="striKXGjZCaCur9RrCGB-18" value="" style="endArrow=none;html=1;rounded=0;strokeWidth=3;entryX=0.001;entryY=0.85;entryDx=0;entryDy=0;entryPerimeter=0;" edge="1" parent="1" target="striKXGjZCaCur9RrCGB-12">
          <mxGeometry width="50" height="50" relative="1" as="geometry">
            <mxPoint x="110" y="630" as="sourcePoint" />
            <mxPoint x="163" y="636" as="targetPoint" />
          </mxGeometry>
        </mxCell>
        <mxCell id="striKXGjZCaCur9RrCGB-19" value="" style="endArrow=none;html=1;rounded=0;strokeWidth=3;" edge="1" parent="1" source="striKXGjZCaCur9RrCGB-15">
          <mxGeometry width="50" height="50" relative="1" as="geometry">
            <mxPoint x="140" y="680" as="sourcePoint" />
            <mxPoint x="170" y="620" as="targetPoint" />
          </mxGeometry>
        </mxCell>
        <mxCell id="striKXGjZCaCur9RrCGB-20" value="" style="endArrow=none;html=1;rounded=0;exitX=0.409;exitY=0.007;exitDx=0;exitDy=0;exitPerimeter=0;strokeWidth=3;" edge="1" parent="1" source="striKXGjZCaCur9RrCGB-14">
          <mxGeometry width="50" height="50" relative="1" as="geometry">
            <mxPoint x="190" y="670" as="sourcePoint" />
            <mxPoint x="240" y="620" as="targetPoint" />
          </mxGeometry>
        </mxCell>
        <mxCell id="striKXGjZCaCur9RrCGB-21" value="&lt;p style=&quot;margin: 0px; font-style: normal; font-variant-caps: normal; font-stretch: normal; line-height: normal; font-size-adjust: none; font-kerning: auto; font-variant-alternates: normal; font-variant-ligatures: normal; font-variant-numeric: normal; font-variant-east-asian: normal; font-variant-position: normal; font-feature-settings: normal; font-optical-sizing: auto; font-variation-settings: normal;&quot;&gt;&lt;font style=&quot;font-size: 24px;&quot;&gt;pharmaceutical company&lt;/font&gt;&lt;/p&gt;" style="rounded=0;whiteSpace=wrap;html=1;strokeWidth=3;" vertex="1" parent="1">
          <mxGeometry x="835.02" y="150" width="290" height="60" as="geometry" />
        </mxCell>
        <mxCell id="striKXGjZCaCur9RrCGB-22" value="&lt;font style=&quot;font-size: 14px;&quot;&gt;&lt;u&gt;Name&lt;/u&gt;&lt;/font&gt;" style="ellipse;whiteSpace=wrap;html=1;" vertex="1" parent="1">
          <mxGeometry x="810.02" y="50" width="100" height="60" as="geometry" />
        </mxCell>
        <mxCell id="striKXGjZCaCur9RrCGB-27" value="" style="endArrow=none;html=1;rounded=0;strokeWidth=3;exitX=0.12;exitY=-0.004;exitDx=0;exitDy=0;exitPerimeter=0;" edge="1" parent="1" source="striKXGjZCaCur9RrCGB-21">
          <mxGeometry width="50" height="50" relative="1" as="geometry">
            <mxPoint x="860.02" y="140" as="sourcePoint" />
            <mxPoint x="860.02" y="110" as="targetPoint" />
          </mxGeometry>
        </mxCell>
        <mxCell id="striKXGjZCaCur9RrCGB-28" value="" style="endArrow=none;html=1;rounded=0;strokeWidth=3;" edge="1" parent="1">
          <mxGeometry width="50" height="50" relative="1" as="geometry">
            <mxPoint x="1000.02" y="151" as="sourcePoint" />
            <mxPoint x="1000.02" y="110" as="targetPoint" />
          </mxGeometry>
        </mxCell>
        <mxCell id="striKXGjZCaCur9RrCGB-29" value="&lt;font style=&quot;font-size: 14px;&quot;&gt;Phone_number&lt;/font&gt;" style="ellipse;shape=doubleEllipse;whiteSpace=wrap;html=1;" vertex="1" parent="1">
          <mxGeometry x="940.02" y="50" width="120" height="60" as="geometry" />
        </mxCell>
        <mxCell id="striKXGjZCaCur9RrCGB-32" value="&lt;font style=&quot;font-size: 14px;&quot;&gt;&lt;u&gt;Trade_name&lt;/u&gt;&lt;/font&gt;" style="ellipse;whiteSpace=wrap;html=1;" vertex="1" parent="1">
          <mxGeometry x="440" y="860" width="100" height="60" as="geometry" />
        </mxCell>
        <mxCell id="striKXGjZCaCur9RrCGB-33" value="&lt;font style=&quot;font-size: 14px;&quot;&gt;Formula&lt;/font&gt;" style="ellipse;whiteSpace=wrap;html=1;" vertex="1" parent="1">
          <mxGeometry x="280" y="830" width="100" height="60" as="geometry" />
        </mxCell>
        <mxCell id="striKXGjZCaCur9RrCGB-34" value="&lt;font style=&quot;font-size: 14px;&quot;&gt;Name&lt;/font&gt;" style="ellipse;whiteSpace=wrap;html=1;" vertex="1" parent="1">
          <mxGeometry x="1110.02" y="760" width="100" height="60" as="geometry" />
        </mxCell>
        <mxCell id="striKXGjZCaCur9RrCGB-35" value="&lt;font style=&quot;font-size: 14px;&quot;&gt;Address&lt;/font&gt;" style="ellipse;whiteSpace=wrap;html=1;" vertex="1" parent="1">
          <mxGeometry x="1090.02" y="650" width="100" height="60" as="geometry" />
        </mxCell>
        <mxCell id="striKXGjZCaCur9RrCGB-36" value="&lt;font style=&quot;font-size: 14px;&quot;&gt;Phone_number&lt;/font&gt;" style="ellipse;shape=doubleEllipse;whiteSpace=wrap;html=1;" vertex="1" parent="1">
          <mxGeometry x="1110.02" y="850" width="120" height="60" as="geometry" />
        </mxCell>
        <mxCell id="striKXGjZCaCur9RrCGB-42" value="" style="endArrow=none;html=1;rounded=0;exitX=0.5;exitY=0;exitDx=0;exitDy=0;strokeWidth=3;entryX=0.141;entryY=0.997;entryDx=0;entryDy=0;entryPerimeter=0;" edge="1" parent="1" source="striKXGjZCaCur9RrCGB-33" target="striKXGjZCaCur9RrCGB-81">
          <mxGeometry width="50" height="50" relative="1" as="geometry">
            <mxPoint x="350" y="830" as="sourcePoint" />
            <mxPoint x="410" y="780" as="targetPoint" />
          </mxGeometry>
        </mxCell>
        <mxCell id="striKXGjZCaCur9RrCGB-43" value="" style="endArrow=none;html=1;rounded=0;exitX=0.5;exitY=0;exitDx=0;exitDy=0;strokeWidth=3;entryX=0.678;entryY=0.948;entryDx=0;entryDy=0;entryPerimeter=0;" edge="1" parent="1" source="striKXGjZCaCur9RrCGB-32" target="striKXGjZCaCur9RrCGB-81">
          <mxGeometry width="50" height="50" relative="1" as="geometry">
            <mxPoint x="435" y="830" as="sourcePoint" />
            <mxPoint x="485" y="780" as="targetPoint" />
          </mxGeometry>
        </mxCell>
        <mxCell id="striKXGjZCaCur9RrCGB-44" value="&lt;font style=&quot;font-size: 14px;&quot;&gt;Prescribe&lt;/font&gt;" style="shape=associativeEntity;whiteSpace=wrap;html=1;align=center;strokeWidth=3;" vertex="1" parent="1">
          <mxGeometry x="400" y="560" width="140" height="60" as="geometry" />
        </mxCell>
        <mxCell id="striKXGjZCaCur9RrCGB-45" value="" style="endArrow=none;html=1;rounded=0;exitX=0.5;exitY=0;exitDx=0;exitDy=0;strokeWidth=3;entryX=0.5;entryY=1;entryDx=0;entryDy=0;" edge="1" parent="1" target="striKXGjZCaCur9RrCGB-44">
          <mxGeometry width="50" height="50" relative="1" as="geometry">
            <mxPoint x="470" y="720" as="sourcePoint" />
            <mxPoint x="475" y="620" as="targetPoint" />
          </mxGeometry>
        </mxCell>
        <mxCell id="striKXGjZCaCur9RrCGB-46" value="" style="endArrow=none;html=1;rounded=0;exitX=1;exitY=0.5;exitDx=0;exitDy=0;strokeWidth=3;" edge="1" parent="1" source="striKXGjZCaCur9RrCGB-12">
          <mxGeometry width="50" height="50" relative="1" as="geometry">
            <mxPoint x="350" y="640" as="sourcePoint" />
            <mxPoint x="400" y="590" as="targetPoint" />
          </mxGeometry>
        </mxCell>
        <mxCell id="striKXGjZCaCur9RrCGB-47" value="" style="endArrow=none;html=1;rounded=0;strokeWidth=3;" edge="1" parent="1">
          <mxGeometry width="50" height="50" relative="1" as="geometry">
            <mxPoint x="470" y="560" as="sourcePoint" />
            <mxPoint x="280" y="220" as="targetPoint" />
          </mxGeometry>
        </mxCell>
        <mxCell id="striKXGjZCaCur9RrCGB-51" value="" style="endArrow=none;html=1;rounded=0;exitX=1;exitY=0.5;exitDx=0;exitDy=0;strokeWidth=3;entryX=0;entryY=1;entryDx=0;entryDy=0;" edge="1" parent="1" source="striKXGjZCaCur9RrCGB-30" target="striKXGjZCaCur9RrCGB-35">
          <mxGeometry width="50" height="50" relative="1" as="geometry">
            <mxPoint x="1030.02" y="630" as="sourcePoint" />
            <mxPoint x="1080.02" y="580" as="targetPoint" />
          </mxGeometry>
        </mxCell>
        <mxCell id="striKXGjZCaCur9RrCGB-52" value="&lt;font style=&quot;font-size: 24px;&quot;&gt;Sold&lt;/font&gt;" style="rhombus;whiteSpace=wrap;html=1;" vertex="1" parent="1">
          <mxGeometry x="895.02" y="840" width="140" height="80" as="geometry" />
        </mxCell>
        <mxCell id="striKXGjZCaCur9RrCGB-53" value="" style="endArrow=none;html=1;rounded=0;exitX=1;exitY=0.5;exitDx=0;exitDy=0;strokeWidth=3;entryX=0;entryY=0.5;entryDx=0;entryDy=0;" edge="1" parent="1" source="striKXGjZCaCur9RrCGB-81" target="striKXGjZCaCur9RrCGB-52">
          <mxGeometry width="50" height="50" relative="1" as="geometry">
            <mxPoint x="760.02" y="740" as="sourcePoint" />
            <mxPoint x="900.02" y="740" as="targetPoint" />
          </mxGeometry>
        </mxCell>
        <mxCell id="striKXGjZCaCur9RrCGB-56" value="&lt;font style=&quot;font-size: 14px;&quot;&gt;End_date&lt;/font&gt;" style="ellipse;whiteSpace=wrap;html=1;" vertex="1" parent="1">
          <mxGeometry x="820.02" y="270" width="100" height="60" as="geometry" />
        </mxCell>
        <mxCell id="striKXGjZCaCur9RrCGB-57" value="&lt;font style=&quot;font-size: 14px;&quot;&gt;Text&lt;/font&gt;" style="ellipse;whiteSpace=wrap;html=1;" vertex="1" parent="1">
          <mxGeometry x="1060.02" y="360" width="100" height="60" as="geometry" />
        </mxCell>
        <mxCell id="striKXGjZCaCur9RrCGB-61" value="&lt;font style=&quot;font-size: 14px;&quot;&gt;Date&lt;/font&gt;" style="ellipse;whiteSpace=wrap;html=1;" vertex="1" parent="1">
          <mxGeometry x="470" y="460" width="100" height="60" as="geometry" />
        </mxCell>
        <mxCell id="striKXGjZCaCur9RrCGB-62" value="" style="endArrow=none;html=1;rounded=0;exitX=0.857;exitY=0;exitDx=0;exitDy=0;exitPerimeter=0;strokeWidth=3;" edge="1" parent="1">
          <mxGeometry width="50" height="50" relative="1" as="geometry">
            <mxPoint x="519.09" y="560" as="sourcePoint" />
            <mxPoint x="519.11" y="520" as="targetPoint" />
          </mxGeometry>
        </mxCell>
        <mxCell id="striKXGjZCaCur9RrCGB-63" value="&lt;font style=&quot;font-size: 14px;&quot;&gt;Quality&lt;/font&gt;" style="ellipse;whiteSpace=wrap;html=1;" vertex="1" parent="1">
          <mxGeometry x="310" y="480" width="100" height="60" as="geometry" />
        </mxCell>
        <mxCell id="striKXGjZCaCur9RrCGB-64" value="" style="endArrow=none;html=1;rounded=0;strokeWidth=3;entryX=0.689;entryY=0.963;entryDx=0;entryDy=0;entryPerimeter=0;" edge="1" parent="1" target="striKXGjZCaCur9RrCGB-63">
          <mxGeometry width="50" height="50" relative="1" as="geometry">
            <mxPoint x="399.9952122286238" y="559.9952122286238" as="sourcePoint" />
            <mxPoint x="355.72" y="515.72" as="targetPoint" />
          </mxGeometry>
        </mxCell>
        <mxCell id="striKXGjZCaCur9RrCGB-65" value="&lt;font style=&quot;font-size: 15px;&quot;&gt;has&lt;/font&gt;" style="rhombus;whiteSpace=wrap;html=1;strokeWidth=2;" vertex="1" parent="1">
          <mxGeometry x="180" y="330" width="80" height="80" as="geometry" />
        </mxCell>
        <mxCell id="striKXGjZCaCur9RrCGB-66" value="" style="endArrow=none;html=1;rounded=0;exitX=0.5;exitY=0;exitDx=0;exitDy=0;strokeWidth=3;" edge="1" parent="1" source="striKXGjZCaCur9RrCGB-65">
          <mxGeometry width="50" height="50" relative="1" as="geometry">
            <mxPoint x="170" y="270" as="sourcePoint" />
            <mxPoint x="220" y="220" as="targetPoint" />
          </mxGeometry>
        </mxCell>
        <mxCell id="striKXGjZCaCur9RrCGB-67" value="" style="endArrow=none;html=1;rounded=0;exitX=0.5;exitY=0;exitDx=0;exitDy=0;strokeWidth=3;" edge="1" parent="1" source="striKXGjZCaCur9RrCGB-12">
          <mxGeometry width="50" height="50" relative="1" as="geometry">
            <mxPoint x="170" y="460" as="sourcePoint" />
            <mxPoint x="220" y="410" as="targetPoint" />
          </mxGeometry>
        </mxCell>
        <mxCell id="striKXGjZCaCur9RrCGB-75" value="" style="endArrow=none;html=1;rounded=0;exitX=0.5;exitY=0;exitDx=0;exitDy=0;strokeWidth=3;entryX=0.462;entryY=0.957;entryDx=0;entryDy=0;entryPerimeter=0;" edge="1" parent="1" target="striKXGjZCaCur9RrCGB-21">
          <mxGeometry width="50" height="50" relative="1" as="geometry">
            <mxPoint x="972.02" y="360" as="sourcePoint" />
            <mxPoint x="973.6499999999999" y="206.91000000000008" as="targetPoint" />
          </mxGeometry>
        </mxCell>
        <mxCell id="striKXGjZCaCur9RrCGB-77" value="" style="endArrow=none;html=1;rounded=0;exitX=1;exitY=0;exitDx=0;exitDy=0;strokeWidth=3;" edge="1" parent="1" target="striKXGjZCaCur9RrCGB-55">
          <mxGeometry width="50" height="50" relative="1" as="geometry">
            <mxPoint x="1041.02" y="300" as="sourcePoint" />
            <mxPoint x="1091.02" y="260" as="targetPoint" />
          </mxGeometry>
        </mxCell>
        <mxCell id="striKXGjZCaCur9RrCGB-55" value="&lt;font style=&quot;font-size: 14px;&quot;&gt;Start_date&lt;/font&gt;" style="ellipse;whiteSpace=wrap;html=1;" vertex="1" parent="1">
          <mxGeometry x="990.02" y="280" width="100" height="60" as="geometry" />
        </mxCell>
        <mxCell id="striKXGjZCaCur9RrCGB-78" value="" style="endArrow=none;html=1;rounded=0;exitX=1;exitY=0;exitDx=0;exitDy=0;strokeWidth=3;entryX=0.316;entryY=0.968;entryDx=0;entryDy=0;entryPerimeter=0;" edge="1" parent="1" target="striKXGjZCaCur9RrCGB-55">
          <mxGeometry width="50" height="50" relative="1" as="geometry">
            <mxPoint x="987.52" y="370" as="sourcePoint" />
            <mxPoint x="1020.02" y="340" as="targetPoint" />
          </mxGeometry>
        </mxCell>
        <mxCell id="striKXGjZCaCur9RrCGB-79" value="" style="endArrow=none;html=1;rounded=0;exitX=1;exitY=0.5;exitDx=0;exitDy=0;strokeWidth=3;" edge="1" parent="1">
          <mxGeometry width="50" height="50" relative="1" as="geometry">
            <mxPoint x="1010.02" y="390" as="sourcePoint" />
            <mxPoint x="1030.02" y="390" as="targetPoint" />
          </mxGeometry>
        </mxCell>
        <mxCell id="striKXGjZCaCur9RrCGB-80" value="" style="endArrow=none;html=1;rounded=0;exitX=0.333;exitY=0.175;exitDx=0;exitDy=0;exitPerimeter=0;strokeWidth=3;entryX=0.884;entryY=0.796;entryDx=0;entryDy=0;entryPerimeter=0;" edge="1" parent="1" target="striKXGjZCaCur9RrCGB-56">
          <mxGeometry width="50" height="50" relative="1" as="geometry">
            <mxPoint x="949.9900000000002" y="364" as="sourcePoint" />
            <mxPoint x="910.02" y="320" as="targetPoint" />
          </mxGeometry>
        </mxCell>
        <mxCell id="striKXGjZCaCur9RrCGB-81" value="&lt;font style=&quot;font-size: 24px;&quot;&gt;Drug&lt;/font&gt;" style="shape=ext;margin=3;double=1;whiteSpace=wrap;html=1;align=center;strokeWidth=3;" vertex="1" parent="1">
          <mxGeometry x="390" y="720" width="140" height="50" as="geometry" />
        </mxCell>
        <mxCell id="striKXGjZCaCur9RrCGB-82" value="&lt;font style=&quot;font-size: 19px;&quot;&gt;price&lt;/font&gt;" style="strokeWidth=2;html=1;shape=mxgraph.flowchart.start_1;whiteSpace=wrap;" vertex="1" parent="1">
          <mxGeometry x="915.02" y="970" width="100" height="60" as="geometry" />
        </mxCell>
        <mxCell id="striKXGjZCaCur9RrCGB-83" value="" style="endArrow=none;html=1;rounded=0;exitX=0.5;exitY=0;exitDx=0;exitDy=0;exitPerimeter=0;strokeWidth=3;" edge="1" parent="1" source="striKXGjZCaCur9RrCGB-82">
          <mxGeometry width="50" height="50" relative="1" as="geometry">
            <mxPoint x="915.02" y="970" as="sourcePoint" />
            <mxPoint x="965.02" y="920" as="targetPoint" />
          </mxGeometry>
        </mxCell>
        <mxCell id="striKXGjZCaCur9RrCGB-84" value="&lt;font style=&quot;font-size: 18px;&quot;&gt;m&lt;/font&gt;" style="text;html=1;align=center;verticalAlign=middle;resizable=0;points=[];autosize=1;strokeColor=none;fillColor=none;" vertex="1" parent="1">
          <mxGeometry x="530" y="717" width="40" height="30" as="geometry" />
        </mxCell>
        <mxCell id="striKXGjZCaCur9RrCGB-86" value="&lt;font style=&quot;font-size: 18px;&quot;&gt;m&lt;/font&gt;" style="text;html=1;align=center;verticalAlign=middle;resizable=0;points=[];autosize=1;strokeColor=none;fillColor=none;" vertex="1" parent="1">
          <mxGeometry x="280" y="560" width="40" height="30" as="geometry" />
        </mxCell>
        <mxCell id="striKXGjZCaCur9RrCGB-87" value="&lt;font style=&quot;font-size: 18px;&quot;&gt;n&lt;/font&gt;" style="text;html=1;align=center;verticalAlign=middle;resizable=0;points=[];autosize=1;strokeColor=none;fillColor=none;" vertex="1" parent="1">
          <mxGeometry x="285" y="210" width="30" height="30" as="geometry" />
        </mxCell>
        <mxCell id="striKXGjZCaCur9RrCGB-90" value="&lt;font style=&quot;font-size: 18px;&quot;&gt;m&lt;/font&gt;" style="text;html=1;align=center;verticalAlign=middle;resizable=0;points=[];autosize=1;strokeColor=none;fillColor=none;" vertex="1" parent="1">
          <mxGeometry x="464" y="687" width="40" height="30" as="geometry" />
        </mxCell>
        <mxCell id="striKXGjZCaCur9RrCGB-91" value="&lt;font style=&quot;font-size: 18px;&quot;&gt;m&lt;/font&gt;" style="text;html=1;align=center;verticalAlign=middle;resizable=0;points=[];autosize=1;strokeColor=none;fillColor=none;" vertex="1" parent="1">
          <mxGeometry x="930" y="775" width="40" height="30" as="geometry" />
        </mxCell>
        <mxCell id="striKXGjZCaCur9RrCGB-92" value="&lt;font style=&quot;font-size: 18px;&quot;&gt;n&lt;/font&gt;" style="text;html=1;align=center;verticalAlign=middle;resizable=0;points=[];autosize=1;strokeColor=none;fillColor=none;" vertex="1" parent="1">
          <mxGeometry x="963.02" y="210" width="30" height="30" as="geometry" />
        </mxCell>
        <mxCell id="striKXGjZCaCur9RrCGB-93" value="&lt;font style=&quot;font-size: 18px;&quot;&gt;manufactured&lt;/font&gt;" style="rhombus;whiteSpace=wrap;html=1;" vertex="1" parent="1">
          <mxGeometry x="680" y="390" width="140" height="110" as="geometry" />
        </mxCell>
        <mxCell id="striKXGjZCaCur9RrCGB-94" value="" style="endArrow=none;html=1;rounded=0;exitX=1;exitY=0;exitDx=0;exitDy=0;strokeWidth=3;" edge="1" parent="1" source="striKXGjZCaCur9RrCGB-81">
          <mxGeometry width="50" height="50" relative="1" as="geometry">
            <mxPoint x="700" y="550" as="sourcePoint" />
            <mxPoint x="750" y="500" as="targetPoint" />
          </mxGeometry>
        </mxCell>
        <mxCell id="striKXGjZCaCur9RrCGB-95" value="" style="endArrow=none;html=1;rounded=0;exitX=0.5;exitY=0;exitDx=0;exitDy=0;strokeWidth=3;entryX=0;entryY=1;entryDx=0;entryDy=0;" edge="1" parent="1" source="striKXGjZCaCur9RrCGB-93" target="striKXGjZCaCur9RrCGB-21">
          <mxGeometry width="50" height="50" relative="1" as="geometry">
            <mxPoint x="775.02" y="260" as="sourcePoint" />
            <mxPoint x="825.02" y="210" as="targetPoint" />
          </mxGeometry>
        </mxCell>
        <mxCell id="striKXGjZCaCur9RrCGB-96" value="&lt;font style=&quot;font-size: 18px;&quot;&gt;m&lt;/font&gt;" style="text;html=1;align=center;verticalAlign=middle;resizable=0;points=[];autosize=1;strokeColor=none;fillColor=none;" vertex="1" parent="1">
          <mxGeometry x="510" y="680" width="40" height="30" as="geometry" />
        </mxCell>
        <mxCell id="striKXGjZCaCur9RrCGB-98" value="&lt;font style=&quot;font-size: 18px;&quot;&gt;n&lt;/font&gt;" style="text;html=1;align=center;verticalAlign=middle;resizable=0;points=[];autosize=1;strokeColor=none;fillColor=none;" vertex="1" parent="1">
          <mxGeometry x="803" y="202" width="30" height="30" as="geometry" />
        </mxCell>
        <mxCell id="striKXGjZCaCur9RrCGB-30" value="&lt;font style=&quot;font-size: 24px;&quot;&gt;Pharmacy&lt;/font&gt;" style="rounded=0;whiteSpace=wrap;html=1;strokeWidth=3;" vertex="1" parent="1">
          <mxGeometry x="910.02" y="720" width="120" height="60" as="geometry" />
        </mxCell>
        <mxCell id="striKXGjZCaCur9RrCGB-101" value="" style="endArrow=none;html=1;rounded=0;exitX=1;exitY=0.75;exitDx=0;exitDy=0;strokeWidth=3;" edge="1" parent="1" source="striKXGjZCaCur9RrCGB-30">
          <mxGeometry width="50" height="50" relative="1" as="geometry">
            <mxPoint x="1060.02" y="840" as="sourcePoint" />
            <mxPoint x="1110.02" y="790" as="targetPoint" />
          </mxGeometry>
        </mxCell>
        <mxCell id="striKXGjZCaCur9RrCGB-102" value="" style="endArrow=none;html=1;rounded=0;exitX=1;exitY=1;exitDx=0;exitDy=0;strokeWidth=3;entryX=0.188;entryY=0.095;entryDx=0;entryDy=0;entryPerimeter=0;" edge="1" parent="1" source="striKXGjZCaCur9RrCGB-30" target="striKXGjZCaCur9RrCGB-36">
          <mxGeometry width="50" height="50" relative="1" as="geometry">
            <mxPoint x="1080.02" y="905" as="sourcePoint" />
            <mxPoint x="1130.02" y="855" as="targetPoint" />
          </mxGeometry>
        </mxCell>
        <mxCell id="striKXGjZCaCur9RrCGB-103" value="" style="endArrow=none;html=1;rounded=0;entryX=0.455;entryY=1.007;entryDx=0;entryDy=0;entryPerimeter=0;strokeWidth=3;" edge="1" parent="1" target="striKXGjZCaCur9RrCGB-30">
          <mxGeometry width="50" height="50" relative="1" as="geometry">
            <mxPoint x="965.02" y="840" as="sourcePoint" />
            <mxPoint x="1015.02" y="790" as="targetPoint" />
          </mxGeometry>
        </mxCell>
        <mxCell id="striKXGjZCaCur9RrCGB-104" value="&lt;font style=&quot;font-size: 24px;&quot;&gt;Contract&lt;/font&gt;" style="shape=associativeEntity;whiteSpace=wrap;html=1;align=center;strokeWidth=3;" vertex="1" parent="1">
          <mxGeometry x="903.02" y="360" width="140" height="60" as="geometry" />
        </mxCell>
        <mxCell id="striKXGjZCaCur9RrCGB-105" value="" style="endArrow=none;html=1;rounded=0;exitX=1;exitY=0.5;exitDx=0;exitDy=0;strokeWidth=3;" edge="1" parent="1" source="striKXGjZCaCur9RrCGB-104">
          <mxGeometry width="50" height="50" relative="1" as="geometry">
            <mxPoint x="1010.02" y="440" as="sourcePoint" />
            <mxPoint x="1060.02" y="390" as="targetPoint" />
          </mxGeometry>
        </mxCell>
        <mxCell id="striKXGjZCaCur9RrCGB-106" value="&lt;font style=&quot;font-size: 18px;&quot;&gt;apointed&lt;/font&gt;" style="rhombus;whiteSpace=wrap;html=1;strokeWidth=3;" vertex="1" parent="1">
          <mxGeometry x="925.02" y="510" width="94.98" height="80" as="geometry" />
        </mxCell>
        <mxCell id="striKXGjZCaCur9RrCGB-107" value="" style="endArrow=none;html=1;rounded=0;exitX=0.5;exitY=0;exitDx=0;exitDy=0;strokeWidth=3;entryX=0.5;entryY=1;entryDx=0;entryDy=0;" edge="1" parent="1" source="striKXGjZCaCur9RrCGB-30" target="striKXGjZCaCur9RrCGB-106">
          <mxGeometry width="50" height="50" relative="1" as="geometry">
            <mxPoint x="925.02" y="640" as="sourcePoint" />
            <mxPoint x="975.02" y="590" as="targetPoint" />
          </mxGeometry>
        </mxCell>
        <mxCell id="striKXGjZCaCur9RrCGB-108" value="" style="endArrow=none;html=1;rounded=0;entryX=0.5;entryY=1;entryDx=0;entryDy=0;exitX=0.5;exitY=0;exitDx=0;exitDy=0;strokeWidth=3;" edge="1" parent="1" source="striKXGjZCaCur9RrCGB-106" target="striKXGjZCaCur9RrCGB-104">
          <mxGeometry width="50" height="50" relative="1" as="geometry">
            <mxPoint x="970" y="510" as="sourcePoint" />
            <mxPoint x="1020" y="460" as="targetPoint" />
          </mxGeometry>
        </mxCell>
        <mxCell id="striKXGjZCaCur9RrCGB-109" value="&lt;u&gt;supervisor_id&lt;/u&gt;" style="ellipse;whiteSpace=wrap;html=1;" vertex="1" parent="1">
          <mxGeometry x="1130.02" y="520" width="100" height="60" as="geometry" />
        </mxCell>
        <mxCell id="striKXGjZCaCur9RrCGB-113" value="" style="endArrow=none;html=1;rounded=0;exitX=1;exitY=0.5;exitDx=0;exitDy=0;strokeWidth=3;" edge="1" parent="1" source="striKXGjZCaCur9RrCGB-106">
          <mxGeometry width="50" height="50" relative="1" as="geometry">
            <mxPoint x="1080.02" y="600" as="sourcePoint" />
            <mxPoint x="1130.02" y="550" as="targetPoint" />
          </mxGeometry>
        </mxCell>
        <mxCell id="striKXGjZCaCur9RrCGB-114" value="&lt;font style=&quot;font-size: 18px;&quot;&gt;m&lt;/font&gt;" style="text;html=1;align=center;verticalAlign=middle;resizable=0;points=[];autosize=1;strokeColor=none;fillColor=none;" vertex="1" parent="1">
          <mxGeometry x="940.02" y="680" width="40" height="30" as="geometry" />
        </mxCell>
        <mxCell id="striKXGjZCaCur9RrCGB-115" value="&lt;font style=&quot;font-size: 18px;&quot;&gt;n&lt;/font&gt;" style="text;html=1;align=center;verticalAlign=middle;resizable=0;points=[];autosize=1;strokeColor=none;fillColor=none;" vertex="1" parent="1">
          <mxGeometry x="942" y="423" width="30" height="30" as="geometry" />
        </mxCell>
        <mxCell id="striKXGjZCaCur9RrCGB-119" value="&lt;font style=&quot;font-size: 18px;&quot;&gt;m&lt;/font&gt;" style="text;html=1;align=center;verticalAlign=middle;resizable=0;points=[];autosize=1;strokeColor=none;fillColor=none;" vertex="1" parent="1">
          <mxGeometry x="210" y="228" width="40" height="30" as="geometry" />
        </mxCell>
        <mxCell id="striKXGjZCaCur9RrCGB-120" value="&lt;font style=&quot;font-size: 18px;&quot;&gt;1&lt;/font&gt;" style="text;html=1;align=center;verticalAlign=middle;resizable=0;points=[];autosize=1;strokeColor=none;fillColor=none;" vertex="1" parent="1">
          <mxGeometry x="215" y="518" width="30" height="30" as="geometry" />
        </mxCell>
      </root>
    </mxGraphModel>
  </diagram>
</mxfile>
